<svg xmlns="http://www.w3.org/2000/svg" width="290" height="74" viewBox="0 0 290 74" fill="none"><path d="M29.7919 59.3656C28.4834 60.7851 26.8836 62.0053 24.9925 63.0262C23.1013 64.0471 21.2019 64.716 19.2941 65.0327C17.3794 65.3367 15.5917 65.3233 13.9311 64.9926C12.2764 64.6422 10.6988 64.051 9.19845 63.2192C7.69809 62.3874 6.3682 61.364 5.20876 60.1492C4.04236 58.9215 3.05151 57.5576 2.23621 56.0574C1.42091 54.5573 0.82297 52.9978 0.442397 51.3791C0.0548545 49.7475 -0.0780707 48.0945 0.0436211 46.4202C0.171209 44.7262 0.546713 43.1056 1.17013 41.5584C1.79945 39.9915 2.77183 38.5047 4.08727 37.098C5.40861 35.6716 7.01484 34.448 8.90598 33.4271C10.7971 32.4061 12.6966 31.7373 14.6043 31.4205C16.518 31.0839 18.2987 31.0845 19.9465 31.4221C21.6001 31.74 23.1672 32.3119 24.6477 33.1379C26.1342 33.9441 27.4571 34.9546 28.6165 36.1694C29.769 37.3715 30.7529 38.7226 31.5682 40.2227C32.3835 41.7229 32.9884 43.2952 33.3829 44.9396C33.7704 46.5711 33.9039 48.2404 33.7833 49.9473C33.6626 51.6542 33.2912 53.2975 32.6688 54.8772C32.0524 56.4372 31.0934 57.9333 29.7919 59.3656ZM19.2733 60.8152C20.571 60.6619 21.8502 60.2449 23.111 59.5643C24.3718 58.8837 25.4211 58.0436 26.2589 57.044C27.0898 56.0317 27.6896 54.9616 28.0584 53.8338C28.4202 52.6932 28.6035 51.4997 28.6084 50.2533C28.6191 48.9872 28.4605 47.7461 28.1324 46.5302C27.7974 45.3015 27.3163 44.1101 26.6892 42.9561C25.9017 41.5073 24.9334 40.2307 23.7841 39.1264C22.6478 38.0152 21.3945 37.1329 20.0244 36.4795C18.6543 35.8261 17.1582 35.5227 15.5362 35.5691C13.92 35.5958 12.3336 36.0294 10.777 36.8697C9.22034 37.7101 7.98289 38.801 7.06466 40.1424C6.15231 41.4641 5.59644 42.8753 5.39702 44.376C5.1976 45.8767 5.24798 47.4083 5.54815 48.971C5.86118 50.5267 6.41141 52.029 7.19884 53.4779C7.82599 54.6318 8.56437 55.6843 9.41398 56.6352C10.2566 57.5734 11.2065 58.3873 12.2635 59.077C13.3265 59.7469 14.4361 60.2425 15.5923 60.5635C16.7416 60.8718 17.9685 60.9557 19.2733 60.8152Z" fill="#F9EDE1"></path><path d="M48.0239 31.4851L56.6403 28.4771C58.3664 27.8745 59.5596 26.9249 60.2201 25.6283C60.8806 24.3316 60.9859 23.0433 60.5361 21.7635C60.0476 20.3735 59.1021 19.3594 57.6996 18.7211C56.306 18.0642 54.6565 18.0684 52.7509 18.7337L44.5488 21.597L48.0239 31.4851ZM35.9241 20.4131C37.8097 19.9557 40.3818 19.1581 43.6406 18.0205C44.8143 17.6108 46.2587 17.0447 47.9736 16.3225C49.7024 15.5953 50.8498 15.133 51.416 14.9353C53.1558 14.3279 54.8126 14.0354 56.3862 14.0577C57.9687 14.0615 59.3356 14.3337 60.4868 14.8743C61.6469 15.3963 62.6362 16.0939 63.4546 16.967C64.273 17.84 64.8781 18.8339 65.2699 19.9487C65.5166 20.6505 65.6552 21.3978 65.6858 22.1906C65.7253 22.9648 65.6333 23.7617 65.4098 24.5813C65.1814 25.3872 64.8416 26.1625 64.3902 26.9072C63.9478 27.6334 63.3313 28.3275 62.5409 28.9897C61.7594 29.6333 60.8582 30.1566 59.837 30.5594C61.0074 30.5371 62.1177 30.8293 63.1681 31.436C64.2136 32.0289 65.0945 32.7489 65.8107 33.5958C66.5359 34.4242 67.2218 35.2509 67.8683 36.0758C68.5237 36.8822 69.1881 37.5155 69.8614 37.9757C70.5299 38.4222 71.1956 38.5297 71.8584 38.2983C73.8192 37.6138 74.8624 37.4505 74.9882 37.8083L75.2566 38.5721C75.4211 39.04 75.5196 39.4305 75.5521 39.7436C75.5846 40.0567 75.5347 40.4218 75.4022 40.8388C75.2649 41.2421 74.9397 41.6183 74.4268 41.9673C73.9187 42.3301 73.2159 42.6682 72.3183 42.9815C71.4346 43.29 70.6037 43.4179 69.8255 43.3651C69.0563 43.2937 68.3637 43.0874 67.7477 42.7462C67.1407 42.3865 66.5554 41.9341 65.9918 41.3892C65.4283 40.8443 64.8778 40.2485 64.3405 39.6018C63.8169 38.9502 63.2841 38.2942 62.7419 37.6337C62.2135 36.9684 61.6302 36.3454 60.9921 35.7647C60.3629 35.1655 59.6982 34.6636 58.998 34.2592C58.3067 33.8361 57.4995 33.5462 56.5763 33.3896C55.6669 33.2281 54.6885 33.2452 53.6411 33.4408L49.25 34.9738L52.2173 43.4168C52.2899 43.6232 52.3548 43.786 52.4122 43.905C52.4785 44.0055 52.5727 44.1193 52.695 44.2466C52.831 44.3691 53.0102 44.4378 53.2326 44.4529C53.4501 44.4543 53.7107 44.4019 54.0145 44.2958C54.6497 44.0741 55.2241 43.9663 55.7378 43.9723C56.2516 43.9784 56.5665 44.1466 56.6825 44.4769C57.3258 46.3072 57.4922 47.5084 57.1816 48.0803C55.0571 48.652 53.2562 49.1957 51.7787 49.7115C50.5083 50.155 48.8848 50.8068 46.9082 51.6667C46.458 51.5767 46.027 51.2327 45.6154 50.6348C45.2037 50.0369 44.8745 49.387 44.6279 48.6851C44.5118 48.3549 44.6526 48.0276 45.0502 47.7034C45.4478 47.3792 45.9642 47.1062 46.5994 46.8844C47.1379 46.6964 47.4514 46.4634 47.5397 46.1854C47.6232 45.8936 47.5923 45.5412 47.4472 45.1284L40.4389 25.1871C40.2938 24.7743 40.0997 24.4867 39.8566 24.3243C39.6087 24.1482 39.2155 24.1541 38.6769 24.3421C37.1304 24.882 36.2314 24.7942 35.9799 24.0785C35.7429 23.4042 35.6005 22.7123 35.5527 22.0028C35.5 21.2796 35.6238 20.7496 35.9241 20.4131Z" fill="#F9EDE1"></path><path d="M111.004 23.8623L112.649 32.8793C112.224 33.4886 111.687 33.8512 111.039 33.967C110.88 33.9954 110.712 34.0106 110.534 34.0128C110.368 33.998 110.185 33.9715 109.985 33.9332C109.782 33.8805 109.619 33.843 109.496 33.8205C109.371 33.7837 109.182 33.7284 108.931 33.6548C108.692 33.5642 108.541 33.5097 108.478 33.4913C107.278 34.254 105.844 34.962 104.178 35.6153C102.529 36.2804 100.948 36.748 99.4361 37.0182C97.2759 37.4043 95.233 37.4508 93.3074 37.1579C91.3818 36.865 89.6911 36.3079 88.2353 35.4866C86.7795 34.6653 85.4799 33.6383 84.3366 32.4056C83.205 31.156 82.2897 29.7863 81.5906 28.2965C80.8915 26.8066 80.3922 25.2292 80.0927 23.5643C79.6873 21.3108 79.6685 19.0994 80.0363 16.9301C80.404 14.7607 81.0991 12.7995 82.1215 11.0464C83.1439 9.2934 84.5328 7.8008 86.288 6.56863C88.0407 5.32211 90.026 4.50068 92.2438 4.10435C94.0007 3.79038 95.8505 3.78574 97.793 4.09043C99.7474 4.37819 101.367 5.03685 102.652 6.06641C102.265 3.91346 102.352 2.7868 102.914 2.68644L105.333 2.25408C106.025 2.13055 106.504 2.81514 106.773 4.30785L107.73 9.62564C107.877 10.4438 107.942 11.0543 107.925 11.4573C107.921 11.8433 107.862 12.0982 107.751 12.2218C107.651 12.3285 107.46 12.4219 107.177 12.5021L105.384 12.8225C105.269 12.8431 105.03 12.7154 104.668 12.4393C104.321 12.1607 103.909 11.8121 103.432 11.3936C102.953 10.9607 102.345 10.5138 101.608 10.0529C100.883 9.57512 100.124 9.15526 99.3303 8.79337C98.5343 8.41712 97.6025 8.154 96.5351 8.00404C95.482 7.85149 94.4154 7.87173 93.3353 8.06475C91.996 8.30409 90.8014 8.76941 89.7515 9.46073C88.699 10.1377 87.8503 10.956 87.2054 11.9157C86.5579 12.861 86.0443 13.9305 85.6645 15.1243C85.2965 16.3011 85.0842 17.5168 85.0275 18.7714C84.9851 20.0234 85.0776 21.2809 85.3048 22.544C85.5217 23.7496 85.8847 24.8995 86.3937 25.9937C86.9145 27.071 87.5906 28.0613 88.422 28.9645C89.2534 29.8678 90.1925 30.6259 91.2392 31.2388C92.2977 31.8348 93.5092 32.2479 94.8735 32.4782C96.2497 32.6915 97.6938 32.663 99.2059 32.3928C101.985 31.8961 104.641 31.0809 107.172 29.9471L106.374 25.512C106.286 25.024 106.176 24.6214 106.045 24.3041C105.911 23.9725 105.705 23.6538 105.427 23.3479C105.163 23.0395 104.779 22.8416 104.272 22.7543C103.78 22.6644 103.182 22.6825 102.476 22.8086C102.202 22.8575 101.993 22.769 101.849 22.543C101.718 22.3144 101.596 21.8844 101.483 21.2529C101.31 20.2912 101.392 19.3876 101.731 18.5419C103.617 18.3678 105.46 18.1199 107.26 17.7982C107.995 17.667 108.719 17.5227 109.434 17.3653C110.147 17.1935 110.729 17.045 111.182 16.9195C111.635 16.7941 111.912 16.7224 112.013 16.7044C112.149 16.7986 112.306 17.052 112.484 17.4646C112.675 17.8603 112.799 18.2232 112.859 18.5533C112.959 19.113 112.946 19.5747 112.818 19.9383C112.688 20.2875 112.499 20.5583 112.251 20.7508C112.017 20.9406 111.778 21.1389 111.533 21.3457C111.302 21.5499 111.128 21.8625 111.01 22.2835C110.89 22.6901 110.888 23.2164 111.004 23.8623Z" fill="#F9EDE1"></path><path d="M137.048 0.248246C138.876 0.212316 140.119 0.129567 140.775 0L140.776 0.0874744C140.876 0.698071 141.16 1.7353 141.628 3.19916C142.111 4.66274 142.428 5.56075 142.581 5.89319L151.117 26.815C151.301 27.2489 151.527 27.5872 151.796 27.8299C152.063 28.058 152.483 28.1664 153.053 28.1552C153.565 28.1452 154.035 28.2234 154.463 28.39C154.89 28.5567 155.159 28.8139 155.268 29.1618C155.228 30.096 155.214 30.8474 155.225 31.416C155.236 31.97 155.119 32.3296 154.873 32.4949C152.676 32.3776 150.831 32.3337 149.339 32.363C146.355 32.4216 144.316 32.5419 143.222 32.7238C142.956 31.8831 142.809 30.7192 142.78 29.2322C142.773 28.8823 143.024 28.6513 143.534 28.5392C144.059 28.4268 144.576 28.3291 145.087 28.2461C145.612 28.1629 145.872 27.9755 145.866 27.6839C145.862 27.4798 145.791 27.2114 145.652 26.8786L143.452 21.0369L131.932 21.2633L130.052 27.1852C129.928 27.5814 129.867 27.8524 129.87 27.9982C129.876 28.2898 130.143 28.4668 130.671 28.5294C131.199 28.5919 131.727 28.6691 132.256 28.7608C132.785 28.8525 133.052 29.0733 133.059 29.4232C132.921 31.2927 132.746 32.463 132.536 32.9338C130.222 32.8188 128.296 32.7765 126.761 32.8066C125.868 32.8242 124.114 32.9388 121.499 33.1507C121.247 32.9952 121.116 32.6404 121.105 32.0864C121.094 31.5179 121.123 30.7662 121.192 29.8314C121.288 29.4795 121.538 29.212 121.944 29.029C122.351 28.846 122.81 28.7495 123.322 28.7394C123.892 28.7282 124.307 28.6034 124.565 28.365C124.824 28.1119 125.036 27.765 125.203 27.3242L132.896 5.64596C133.007 5.32292 133.061 5.08122 133.057 4.92085C133.052 4.62927 132.894 4.44276 132.585 4.36132C132.276 4.2653 131.939 4.23547 131.574 4.27181C131.223 4.30787 130.893 4.2706 130.584 4.16C130.274 4.03482 130.116 3.81187 130.11 3.49113C130.109 3.46197 130.122 3.38879 130.149 3.27158C130.322 1.6347 130.558 0.609133 130.857 0.194883C132.658 0.276161 134.722 0.293948 137.048 0.248246ZM137.43 5.11934C135.967 8.88176 134.493 13.1476 133.007 17.9168L142.223 17.7358C141.479 15.6356 140.706 13.536 139.903 11.437C139.101 9.33795 138.484 7.76033 138.054 6.70411L137.43 5.11934Z" fill="#F9EDE1"></path><path d="M167.098 0.187741C167.342 0.237156 167.735 0.329829 168.278 0.465761C168.834 0.60375 169.342 0.720102 169.802 0.814816C170.261 0.909531 170.78 0.998039 171.36 1.08034C171.823 1.14618 172.399 1.2058 173.085 1.2592C173.775 1.29816 174.191 1.32793 174.336 1.34851C174.38 1.35468 174.429 1.3691 174.485 1.39177C174.543 1.4 174.579 1.40514 174.594 1.4072C174.838 1.45661 175.611 2.61223 176.913 4.87404C178.216 7.13585 179.774 9.98633 181.587 13.4255C183.415 16.8667 184.827 19.5492 185.823 21.4729C186.819 23.3966 187.717 25.1296 188.516 26.6718L190.944 9.69509C191.006 9.26201 190.966 8.91764 190.825 8.66197C190.687 8.39187 190.335 8.2167 189.77 8.13645C189.104 8.0418 188.544 7.87391 188.091 7.63278C187.638 7.39165 187.436 7.09785 187.485 6.75139C187.591 6.01515 187.763 5.32529 188.003 4.68181C188.259 4.02595 188.563 3.60517 188.915 3.41946C190.204 3.70569 191.928 4.0021 194.086 4.30868C196.259 4.61731 197.982 4.81061 199.257 4.88856C199.543 5.16481 199.709 5.65246 199.757 6.35153C199.821 7.03822 199.801 7.74968 199.696 8.48592C199.646 8.83238 199.37 9.05828 198.867 9.16361C198.364 9.26895 197.78 9.27429 197.114 9.17964C196.795 9.13437 196.528 9.14065 196.313 9.19846C196.1 9.24183 195.938 9.33674 195.829 9.48319C195.734 9.6317 195.662 9.76886 195.615 9.89467C195.584 10.0081 195.553 10.1731 195.522 10.3896L193.013 27.9294C192.871 28.9255 192.686 30.5268 192.459 32.7334C192.249 34.9277 192.115 36.2269 192.057 36.6311C191.213 37.2624 190.378 37.5194 189.553 37.4021C189.379 37.3774 189.217 37.3249 189.065 37.2445C188.929 37.1662 188.806 37.0456 188.696 36.8827C188.584 36.7343 188.492 36.6034 188.42 36.49C188.36 36.3931 188.273 36.2261 188.159 35.9889C188.047 35.7374 187.962 35.5559 187.904 35.4446C186.85 33.4096 184.167 28.3003 179.854 20.1168C175.544 11.9189 173.387 7.83441 173.382 7.86328L170.499 28.0232C170.468 28.2397 170.451 28.414 170.447 28.546C170.459 28.6656 170.49 28.8099 170.54 28.979C170.604 29.1501 170.732 29.2934 170.922 29.4088C171.114 29.5098 171.37 29.5829 171.689 29.6282C172.355 29.7229 172.915 29.8907 173.368 30.1319C173.821 30.373 174.023 30.6668 173.973 31.0133C173.868 31.7495 173.686 32.4528 173.428 33.1231C173.184 33.7954 172.886 34.2245 172.534 34.4102C170.587 33.9715 168.882 33.6483 167.419 33.4405C166.043 33.245 164.373 33.0888 162.41 32.9719C162.052 32.6854 161.828 32.1823 161.739 31.4626C161.65 30.7429 161.658 30.015 161.763 29.2787C161.812 28.9323 162.089 28.7064 162.591 28.601C163.094 28.4957 163.679 28.4904 164.345 28.585C164.91 28.6653 165.296 28.6022 165.503 28.396C165.711 28.1752 165.847 27.8483 165.909 27.4153L168.9 6.49748C168.962 6.0644 168.923 5.72002 168.782 5.46436C168.643 5.19425 168.291 5.01908 167.727 4.93883C166.104 4.70838 165.347 4.21782 165.454 3.46715C165.555 2.75979 165.749 2.08023 166.034 1.42849C166.321 0.762309 166.676 0.348726 167.098 0.187741Z" fill="#F9EDE1"></path><path d="M212.34 8.13876C214.633 8.96031 216.294 9.51153 217.324 9.7924C218.425 10.0925 220.193 10.4763 222.628 10.9437C222.877 11.2534 222.977 11.772 222.929 12.4997C222.899 13.2172 222.784 13.9416 222.583 14.673C222.49 15.0105 222.188 15.2002 221.676 15.242C221.164 15.2838 220.583 15.2162 219.934 15.0393C219.624 14.9546 219.358 14.9275 219.137 14.9581C218.92 14.9745 218.748 15.0486 218.621 15.1802C218.508 15.3157 218.42 15.4429 218.357 15.5618C218.312 15.6704 218.261 15.8303 218.203 16.0412L212.644 36.295C212.586 36.506 212.547 36.6767 212.526 36.8071C212.523 36.9273 212.536 37.0744 212.564 37.2484C212.606 37.4262 212.715 37.5842 212.889 37.7225C213.067 37.8467 213.312 37.9511 213.622 38.0357C214.271 38.2127 214.806 38.4491 215.225 38.7449C215.644 39.0406 215.808 39.3573 215.715 39.6948C215.514 40.4262 215.244 41.1083 214.903 41.7411C214.58 42.3637 214.233 42.7452 213.861 42.8856C211.885 42.1807 210.164 41.6281 208.696 41.228C207.313 40.8509 205.605 40.4685 203.573 40.0807C203.254 39.7517 203.095 39.2247 203.097 38.4995C203.099 37.7744 203.198 37.0532 203.395 36.3358C203.488 35.9983 203.79 35.8086 204.302 35.7668C204.814 35.725 205.395 35.7926 206.044 35.9696C206.594 36.1196 206.985 36.1052 207.216 35.9263C207.451 35.7334 207.626 35.426 207.742 35.004L213.336 14.6236C213.452 14.2017 213.456 13.8551 213.348 13.5839C213.245 13.2986 212.918 13.0809 212.367 12.9309C210.787 12.5 210.097 11.9188 210.298 11.1874C210.487 10.4982 210.764 9.8481 211.129 9.23706C211.497 8.61195 211.901 8.24585 212.34 8.13876Z" fill="#F9EDE1"></path><path d="M254.455 34.2363L252.76 33.5691C252.638 33.5209 252.53 33.3372 252.436 33.0181C252.348 32.6854 252.252 32.2715 252.15 31.7764C252.061 31.2866 251.947 30.7401 251.809 30.1369C251.676 29.52 251.479 28.8859 251.218 28.2344C250.971 27.5882 250.673 26.9694 250.326 26.3778C249.992 25.7916 249.533 25.2424 248.95 24.7304C248.385 24.2101 247.742 23.808 247.021 23.5239C245.756 23.0255 244.494 22.7952 243.236 22.8329C241.984 22.857 240.83 23.1082 239.775 23.5865C238.726 24.0512 237.725 24.6916 236.772 25.5079C235.838 26.316 235.016 27.2388 234.305 28.2761C233.609 29.3188 233.024 30.4368 232.551 31.6302C232.099 32.7694 231.808 33.9404 231.677 35.1432C231.565 36.3378 231.631 37.5398 231.875 38.7492C232.133 39.9639 232.559 41.1116 233.153 42.1923C233.766 43.2647 234.619 44.2671 235.713 45.1995C236.812 46.1183 238.103 46.8698 239.586 47.4539C242.756 48.7026 246.077 48.8581 249.548 47.9203C249.799 48.8345 249.79 49.6307 249.521 50.3087C249.134 51.2852 248.246 51.978 246.856 52.3872C245.486 52.7882 243.949 52.8962 242.244 52.711C240.54 52.5258 238.906 52.125 237.341 51.5087C235.245 50.6834 233.429 49.6309 231.891 48.351C230.367 47.0765 229.189 45.7032 228.357 44.2308C227.525 42.7585 226.934 41.1932 226.585 39.5347C226.254 37.8681 226.178 36.2153 226.356 34.5763C226.548 32.9427 226.955 31.3393 227.579 29.7662C228.423 27.6371 229.574 25.7463 231.032 24.0939C232.489 22.4415 234.115 21.1377 235.91 20.1825C237.705 19.2274 239.673 18.6858 241.817 18.5577C243.965 18.4161 246.087 18.758 248.182 19.5833C249.516 20.1085 250.745 20.9374 251.869 22.07C253.012 23.1944 253.777 24.4991 254.163 25.9841C254.97 23.9499 255.639 23.0373 256.169 23.2463L258.455 24.1467C259.108 24.4039 259.155 25.2377 258.596 26.6481L256.442 32.0794C256.136 32.8524 255.869 33.4059 255.642 33.74C255.435 34.0658 255.251 34.252 255.091 34.2987C254.949 34.3372 254.737 34.3164 254.455 34.2363Z" fill="#F9EDE1"></path><path d="M257.169 60.0659L255.311 59.0288C256.506 54.9654 257.618 52.0179 258.648 50.186C258.812 49.8935 259.235 49.8121 259.917 49.9421C260.599 50.0721 261.252 50.3117 261.878 50.6609C262.133 50.8035 262.326 50.9366 262.458 51.0603C262.287 52.3188 262.34 53.5519 262.617 54.7597C262.894 55.9674 263.331 57.039 263.929 57.9746C264.54 58.9172 265.204 59.7482 265.924 60.4675C266.663 61.1812 267.435 61.7625 268.239 62.2116C269.707 63.0314 271.082 63.3734 272.366 63.2379C273.67 63.0968 274.679 62.3902 275.394 61.1181C275.874 60.2658 276.081 59.404 276.018 58.5327C275.974 57.6558 275.712 56.8242 275.232 56.0378C274.771 55.2458 274.174 54.4441 273.439 53.6327C272.718 52.8285 271.928 52.0112 271.069 51.1809C270.224 50.3578 269.38 49.5184 268.536 48.6627C267.705 47.8141 266.961 46.9141 266.305 45.9628C265.662 45.0186 265.154 44.0579 264.781 43.0807C264.428 42.0979 264.305 41.0182 264.413 39.8416C264.534 38.6722 264.938 37.4769 265.625 36.2557C266.504 34.691 267.747 33.6134 269.354 33.023C270.968 32.4199 272.655 32.2674 274.416 32.5656C276.197 32.8581 277.956 33.4891 279.691 34.4586C282.397 35.9697 284.316 37.927 285.447 40.3304C285.717 40.1473 285.953 39.9527 286.152 39.7466C286.365 39.5477 286.496 39.4037 286.546 39.3146C286.596 39.2256 286.694 39.1714 286.839 39.1521C286.996 39.1399 287.158 39.1802 287.324 39.2729C287.497 39.3528 287.801 39.5139 288.235 39.7563C288.618 39.9702 289.206 40.3405 290 40.8675C288.809 44.8657 287.791 47.6153 286.947 49.1164C286.833 49.3199 286.401 49.2964 285.653 49.0458C284.918 48.8024 284.232 48.5024 283.593 48.146L283.115 47.8787C283.579 45.9485 283.41 44.0571 282.607 42.2045C281.811 40.3391 280.347 38.8112 278.215 37.6208C276.416 36.6158 274.863 36.2164 273.556 36.4226C272.249 36.6289 271.249 37.349 270.555 38.5829C270.147 39.308 269.99 40.0645 270.084 40.8523C270.191 41.6472 270.491 42.4252 270.986 43.1862C271.488 43.9344 272.109 44.7078 272.851 45.5065C273.593 46.3052 274.389 47.126 275.24 47.969C276.091 48.812 276.931 49.6741 277.761 50.5552C278.59 51.4364 279.326 52.3653 279.968 53.3421C280.609 54.3189 281.109 55.3086 281.468 56.3112C281.827 57.3139 281.942 58.4063 281.814 59.5884C281.706 60.765 281.316 61.9512 280.644 63.147C279.878 64.5081 278.931 65.5669 277.801 66.3233C276.679 67.0671 275.48 67.4841 274.205 67.5743C272.942 67.6717 271.651 67.5523 270.331 67.216C269.023 66.8869 267.712 66.3553 266.397 65.6211C264.993 64.837 263.728 63.8211 262.601 62.5735C261.488 61.333 260.605 59.9793 259.954 58.5124L258.566 60.2197C258.476 60.32 258.388 60.3876 258.301 60.4227C258.234 60.4522 258.107 60.4397 257.92 60.3852C257.725 60.3434 257.475 60.237 257.169 60.0659Z" fill="#F9EDE1"></path><path d="M65.3605 67.1911C65.3605 67.9333 64.7568 68.5349 64.0121 68.5349C63.2674 68.5349 62.6637 67.9333 62.6637 67.1911C62.6637 66.4489 63.2674 65.8472 64.0121 65.8472C64.7568 65.8472 65.3605 66.4489 65.3605 67.1911Z" fill="#F9EDE1"></path><path d="M77.0824 65.7003L76.09 69.4129C75.9462 70.144 76.6941 70.273 77.8016 70.273V70.7747H73.1991V70.273C74.0189 70.273 74.5367 69.9146 74.7093 69.2696L76.7085 61.8013C76.7948 61.1132 76.0325 60.9412 75.2846 60.9412V60.4538H84.0437L83.4684 64.5678H82.591C82.8787 62.5467 83.1232 61.1705 80.7644 61.1705H78.2906L77.2694 64.9692H78.0892C79.4556 64.9692 79.8295 64.4818 80.261 63.0914H80.9802L79.5994 68.0511H78.8803C79.3261 66.202 79.2255 65.7003 78.0605 65.7003H77.0824Z" fill="#F9EDE1"></path><path d="M89.3069 68.5385L89.8534 66.417C90.1842 65.1269 90.0979 63.8941 88.9905 63.8941C87.5234 63.8941 86.3728 66.6464 86.3728 68.3952C86.3728 69.4703 86.6173 70.3447 87.4371 70.3447C88.1707 70.3447 88.9186 69.9863 89.3069 68.5385ZM89.1199 70.101C88.6165 70.703 87.883 71.1331 87.0776 71.1331C85.6681 71.1331 85.0064 69.7283 85.0064 68.3952C85.0064 66.073 86.6892 63.3207 89.0768 63.3207C89.7384 63.3207 90.1986 63.6648 90.4575 64.1378L90.6013 63.6074H91.867L90.4288 69.0402C90.3137 69.4989 90.0979 70.3447 90.6589 70.3447C91.1191 70.3447 91.5506 69.4703 91.7807 68.7392L92.1978 68.9686C91.8095 70.1583 91.2342 71.1331 90.1986 71.1331C89.5658 71.1331 89.235 70.66 89.1199 70.101Z" fill="#F9EDE1"></path><path d="M98.6208 63.3207C99.3687 63.3207 99.7138 63.8654 99.7138 64.4532C99.7138 64.8832 99.3543 65.2416 98.9228 65.2416C98.4913 65.2416 98.1317 64.8832 98.1317 64.4532C98.1317 64.3528 98.1605 64.2525 98.1893 64.1665C97.614 64.2238 96.938 64.9405 96.2764 66.8184L95.0251 70.7747H93.7306L95.284 65.9296C95.6435 64.8115 95.6148 64.1091 95.0107 64.1091C94.3491 64.1091 93.7018 65.1556 93.3279 66.1446L92.9108 65.9296C93.2704 64.8259 93.9032 63.3207 95.284 63.3207C96.2188 63.3207 96.564 64.1378 96.5928 64.9979C97.0962 64.1091 97.7866 63.3207 98.6208 63.3207Z" fill="#F9EDE1"></path><path d="M106.51 63.3207C107.676 63.3207 108.021 64.3958 107.978 65.3992C108.596 64.3815 109.473 63.3064 110.667 63.3207C111.947 63.3351 112.479 64.5535 112.005 66.0156L111.084 68.8539C110.84 69.5993 110.681 70.3447 111.199 70.3447C111.933 70.3447 112.638 69.2122 113.098 68.1372L113.558 68.4668C113.026 69.6566 112.163 71.1331 110.926 71.1331C110.049 71.1331 109.344 70.273 109.775 68.9399L110.725 66.0156C111.027 65.0982 111.171 64.1665 110.379 64.1665C109.459 64.1665 108.395 65.1986 107.56 67.2484V67.2054L106.439 70.7604H105.144L106.697 65.9296C107.057 64.8115 106.942 64.1091 106.252 64.1091C105.245 64.1091 104.267 65.1412 103.864 66.417L102.483 70.7747H101.189L102.742 65.9296C103.102 64.8115 103.073 64.1091 102.469 64.1091C101.807 64.1091 101.16 65.1556 100.786 66.1446L100.369 65.9296C100.729 64.8259 101.361 63.3207 102.742 63.3207C103.72 63.3207 104.051 64.1951 104.051 65.1126C104.612 64.1521 105.317 63.3207 106.51 63.3207Z" fill="#F9EDE1"></path><path d="M118.735 68.5959C118.231 70.015 117.426 71.1331 116.405 71.1331C115.283 71.1331 114.707 70.1153 115.455 68.3092L116.448 65.901C116.865 64.8832 117.095 64.1091 116.419 64.1091C115.829 64.1091 115.268 64.7542 114.765 65.9153L114.348 65.7003C114.837 64.4675 115.556 63.3207 116.692 63.3207C117.814 63.3207 118.447 64.2668 117.67 66.159L116.534 68.9112C116.232 69.6566 116.189 70.3447 116.678 70.3447C117.296 70.3447 117.886 69.5133 118.318 68.3808L118.735 68.5959ZM116.692 61.1419C116.692 60.6688 117.081 60.2818 117.555 60.2818C118.03 60.2818 118.418 60.6688 118.418 61.1419C118.418 61.6149 118.03 62.0019 117.555 62.0019C117.081 62.0019 116.692 61.6149 116.692 61.1419Z" fill="#F9EDE1"></path><path d="M126.966 66.0156L126.045 68.8539C125.801 69.5993 125.614 70.3447 126.132 70.3447C126.75 70.3447 127.556 69.1979 128.059 68.1372L128.519 68.4668C127.958 69.6566 127.023 71.1331 125.758 71.1331C124.967 71.1331 124.305 70.4594 124.737 68.9399L125.686 66.0156C125.988 65.0982 126.089 64.1091 125.298 64.1091C124.377 64.1091 123.485 65.1986 122.651 67.2484L121.529 70.7747H120.235L121.788 65.9296C122.148 64.8115 122.119 64.1091 121.515 64.1091C120.853 64.1091 120.206 65.1556 119.832 66.1446L119.415 65.9296C119.775 64.8259 120.407 63.3207 121.788 63.3207C122.795 63.3207 123.155 64.1521 123.14 65.0839C123.73 64.1665 124.578 63.3064 125.686 63.3207C126.908 63.3351 127.527 64.3098 126.966 66.0156Z" fill="#F9EDE1"></path><path d="M135.391 64.6252L135.722 63.6074H137.016L134.628 71.1331C134.01 73.0683 133.161 74 131.119 74C129.882 74 129.048 73.2546 129.048 72.1938C129.048 71.7495 129.408 71.4054 129.839 71.4054C130.271 71.4054 130.63 71.7495 130.63 72.1938C130.63 72.5522 130.386 72.8676 130.055 72.9536C130.256 73.2116 130.616 73.3549 131.263 73.3549C132.385 73.3549 132.816 72.6812 133.133 71.7208L133.463 70.6457C133.032 70.9467 132.5 71.1331 131.939 71.1331C130.63 71.1331 129.551 70.0006 129.551 68.3952C129.551 66.073 131.177 63.3064 133.65 63.3207C134.557 63.3351 135.132 63.9228 135.391 64.6252ZM133.823 69.5419L134.801 66.4743C135.189 64.9405 134.657 63.8941 133.564 63.8941C132.011 63.8941 130.918 66.589 130.918 68.3378C130.918 69.4129 131.32 70.3447 132.255 70.3447C132.773 70.3447 133.377 70.1583 133.823 69.5419Z" fill="#F9EDE1"></path><path d="M150.55 60.1671L149.931 64.0375H149.054C149.212 62.3603 148.277 60.8838 146.623 60.8838C145.502 60.8838 144.955 61.5289 144.955 62.4893C144.955 65.1842 149.86 65.3992 149.831 68.3808C149.816 70.0293 148.407 71.2764 146.393 71.2764C144.466 71.2764 143.2 70.3733 143.2 70.3733L142.697 71.1187H141.848L142.956 67.2627H143.819C143.603 68.9542 144.509 70.5454 146.494 70.5454C147.702 70.5454 148.392 69.9003 148.392 68.9542C148.392 65.9583 143.517 66.331 143.517 62.8477C143.517 61.4716 144.624 60.1671 146.695 60.1671C148.22 60.1671 149.255 61.0702 149.255 61.0702L149.687 60.1671H150.55Z" fill="#F9EDE1"></path><path d="M156.04 68.5959C155.537 70.015 154.731 71.1331 153.71 71.1331C152.588 71.1331 152.013 70.1153 152.761 68.3092L153.753 65.901C154.17 64.8832 154.4 64.1091 153.724 64.1091C153.135 64.1091 152.574 64.7542 152.07 65.9153L151.653 65.7003C152.142 64.4675 152.861 63.3207 153.998 63.3207C155.119 63.3207 155.752 64.2668 154.976 66.159L153.839 68.9112C153.537 69.6566 153.494 70.3447 153.983 70.3447C154.602 70.3447 155.191 69.5133 155.623 68.3808L156.04 68.5959ZM153.998 61.1419C153.998 60.6688 154.386 60.2818 154.861 60.2818C155.335 60.2818 155.724 60.6688 155.724 61.1419C155.724 61.6149 155.335 62.0019 154.861 62.0019C154.386 62.0019 153.998 61.6149 153.998 61.1419Z" fill="#F9EDE1"></path><path d="M164.271 66.0156L163.351 68.8539C163.106 69.5993 162.919 70.3447 163.437 70.3447C164.056 70.3447 164.861 69.1979 165.364 68.1372L165.825 68.4668C165.264 69.6566 164.329 71.1331 163.063 71.1331C162.272 71.1331 161.61 70.4594 162.042 68.9399L162.991 66.0156C163.293 65.0982 163.394 64.1091 162.603 64.1091C161.682 64.1091 160.791 65.1986 159.956 67.2484L158.835 70.7747H157.54L159.093 65.9296C159.453 64.8115 159.424 64.1091 158.82 64.1091C158.159 64.1091 157.511 65.1556 157.137 66.1446L156.72 65.9296C157.08 64.8259 157.713 63.3207 159.093 63.3207C160.1 63.3207 160.46 64.1521 160.445 65.0839C161.035 64.1665 161.884 63.3064 162.991 63.3207C164.214 63.3351 164.832 64.3098 164.271 66.0156Z" fill="#F9EDE1"></path><path d="M172.826 65.3276C172.826 65.7576 172.466 66.116 172.034 66.116C171.603 66.116 171.243 65.7576 171.243 65.3276C171.243 64.9119 171.545 64.5965 171.934 64.5392C171.804 64.1665 171.531 63.8798 170.956 63.8798C169.374 63.8798 168.194 66.4743 168.194 68.1372C168.194 69.4273 168.683 70.3447 169.748 70.3447C170.697 70.3447 171.517 69.4559 172.02 68.3665L172.495 68.6245C171.833 69.972 170.913 71.1331 169.259 71.1331C167.619 71.1331 166.828 69.8286 166.828 68.3092C166.828 65.944 168.827 63.3064 171.085 63.3064C172.236 63.3064 172.826 64.3672 172.826 65.3276Z" fill="#F9EDE1"></path><path d="M179.255 68.9686C178.522 70.101 177.673 71.1331 176.163 71.1331C174.696 71.1331 173.617 70.1583 173.617 68.4382C173.617 66.2163 175.53 63.3207 178.177 63.3207C179.37 63.3207 180.046 63.8511 180.046 64.7542C180.046 66.4743 177.529 67.2197 175.012 67.8075C174.998 67.9795 174.984 68.1515 174.984 68.3092C174.984 69.5419 175.401 70.3447 176.35 70.3447C177.443 70.3447 178.249 69.4846 178.809 68.5242L179.255 68.9686ZM178.824 64.7542C178.824 64.3385 178.694 63.8941 178.09 63.8941C176.839 63.8941 175.631 65.4709 175.185 67.0477C177.285 66.675 178.824 66.0156 178.824 64.7542Z" fill="#F9EDE1"></path><path d="M190.846 60.4538L188.487 69.3413C188.343 69.972 188.761 70.273 189.854 70.273V70.7747H185.366V70.273C186.172 70.273 187.02 69.9576 187.25 69.1836L188.861 63.1917C189.12 62.2743 188.343 62.088 187.739 62.088H187.135V61.4429C188.401 61.2996 188.847 61.1849 190.343 60.4538H190.846Z" fill="#F9EDE1"></path><path d="M198.805 63.9945C198.805 67.5351 196.72 71.1331 193.858 71.1331C192.577 71.1331 191.743 70.3017 191.729 69.3556C191.729 68.8395 192.146 68.4238 192.664 68.4238C193.182 68.4238 193.599 68.8395 193.599 69.3556C193.599 69.7856 193.325 70.1297 192.937 70.2443C193.138 70.445 193.455 70.5597 193.929 70.5597C195.569 70.5597 196.777 68.3808 197.367 66.2163C196.677 66.7324 195.814 67.1051 194.979 67.1051C193.369 67.1051 192.405 65.8293 192.405 64.4675C192.405 62.217 194.045 60.3821 196.317 60.3821C198.029 60.3821 198.805 61.8729 198.805 63.9945ZM197.784 63.4211C197.784 62.1166 197.324 60.9412 196.216 60.9412C194.85 60.9412 193.771 62.6327 193.771 64.4675C193.771 65.4709 194.03 66.5317 195.123 66.5317C196.935 66.5317 197.784 64.8545 197.784 63.4211Z" fill="#F9EDE1"></path><path d="M206.938 63.9945C206.938 67.5351 204.852 71.1331 201.99 71.1331C200.71 71.1331 199.876 70.3017 199.861 69.3556C199.861 68.8395 200.278 68.4238 200.796 68.4238C201.314 68.4238 201.731 68.8395 201.731 69.3556C201.731 69.7856 201.458 70.1297 201.07 70.2443C201.271 70.445 201.587 70.5597 202.062 70.5597C203.702 70.5597 204.91 68.3808 205.499 66.2163C204.809 66.7324 203.946 67.1051 203.112 67.1051C201.501 67.1051 200.537 65.8293 200.537 64.4675C200.537 62.217 202.177 60.3821 204.449 60.3821C206.161 60.3821 206.938 61.8729 206.938 63.9945ZM205.916 63.4211C205.916 62.1166 205.456 60.9412 204.349 60.9412C202.982 60.9412 201.904 62.6327 201.904 64.4675C201.904 65.4709 202.163 66.5317 203.256 66.5317C205.068 66.5317 205.916 64.8545 205.916 63.4211Z" fill="#F9EDE1"></path><path d="M215.07 62.1453C215.07 62.6757 214.653 63.0914 214.135 63.0914C213.617 63.0914 213.2 62.6757 213.2 62.1596C213.2 61.7296 213.474 61.3856 213.862 61.2709C213.661 61.0702 213.344 60.9555 212.884 60.9555C211.259 60.9555 210.065 63.077 209.461 65.2272C210.194 64.7112 211.072 64.4102 211.82 64.4102C213.43 64.4102 214.394 65.6859 214.394 67.0477C214.394 69.2983 212.754 71.1331 210.54 71.1331C208.886 71.1331 207.994 68.9972 207.994 67.5208C207.994 63.9801 210.079 60.3821 212.941 60.3821C214.222 60.3821 215.056 61.2135 215.07 62.1453ZM209.015 68.0941C209.015 69.3269 209.475 70.574 210.712 70.574C211.949 70.574 213.028 68.8825 213.028 67.0477C213.028 66.0443 212.769 64.9835 211.676 64.9835C210.051 64.9835 209.015 66.8614 209.015 68.0941Z" fill="#F9EDE1"></path><path d="M225.369 67.1911C225.369 67.9333 224.765 68.5349 224.02 68.5349C223.276 68.5349 222.672 67.9333 222.672 67.1911C222.672 66.4489 223.276 65.8472 224.02 65.8472C224.765 65.8472 225.369 66.4489 225.369 67.1911Z" fill="#F9EDE1"></path></svg>