<svg xmlns="http://www.w3.org/2000/svg" width="223" height="40" viewBox="0 0 223 40" fill="none"><path d="M21.2695 32.6875C19.6419 33.2474 17.8711 33.5273 15.957 33.5273C14.043 33.5273 12.2721 33.2474 10.6445 32.6875C9.01693 32.1146 7.6237 31.3464 6.46484 30.3828C5.31901 29.4062 4.33594 28.2734 3.51562 26.9844C2.69531 25.6953 2.08984 24.3281 1.69922 22.8828C1.30859 21.4245 1.11328 19.9336 1.11328 18.4102C1.11328 16.8867 1.30859 15.4089 1.69922 13.9766C2.08984 12.5312 2.6888 11.1771 3.49609 9.91406C4.31641 8.63802 5.29948 7.52474 6.44531 6.57422C7.60417 5.61068 8.9974 4.85547 10.625 4.30859C12.2656 3.7487 14.043 3.46875 15.957 3.46875C17.8711 3.46875 19.6419 3.7487 21.2695 4.30859C22.9102 4.85547 24.3034 5.61068 25.4492 6.57422C26.6081 7.52474 27.5911 8.63802 28.3984 9.91406C29.2188 11.1771 29.8242 12.5312 30.2148 13.9766C30.6055 15.4089 30.8008 16.8867 30.8008 18.4102C30.8008 19.9336 30.6055 21.4245 30.2148 22.8828C29.8242 24.3281 29.2188 25.6953 28.3984 26.9844C27.5781 28.2734 26.5885 29.4062 25.4297 30.3828C24.2839 31.3464 22.8971 32.1146 21.2695 32.6875ZM12.4219 29.3672C13.5026 29.7969 14.681 30.0117 15.957 30.0117C17.2331 30.0117 18.4115 29.7969 19.4922 29.3672C20.5729 28.9245 21.4974 28.3385 22.2656 27.6094C23.0339 26.8672 23.6849 26.0078 24.2188 25.0312C24.7656 24.0417 25.1693 23 25.4297 21.9062C25.6901 20.7995 25.8203 19.6602 25.8203 18.4883C25.8203 17.0169 25.6055 15.6042 25.1758 14.25C24.7591 12.8958 24.1536 11.6719 23.3594 10.5781C22.5651 9.48438 21.5234 8.61198 20.2344 7.96094C18.9583 7.29688 17.5326 6.96484 15.957 6.96484C14.3815 6.96484 12.9492 7.29688 11.6602 7.96094C10.3841 8.61198 9.34896 9.48438 8.55469 10.5781C7.76042 11.6719 7.14844 12.8958 6.71875 14.25C6.30208 15.6042 6.09375 17.0169 6.09375 18.4883C6.09375 19.6602 6.22396 20.7995 6.48438 21.9062C6.74479 23 7.14193 24.0417 7.67578 25.0312C8.22266 26.0078 8.88021 26.8672 9.64844 27.6094C10.4167 28.3385 11.3411 28.9245 12.4219 29.3672ZM41.0156 16.5352H49.1406C50.7682 16.5352 52.0508 16.0859 52.9883 15.1875C53.9258 14.2891 54.3945 13.2344 54.3945 12.0234C54.3945 10.7083 53.8997 9.57552 52.9102 8.625C51.9336 7.66146 50.5469 7.17969 48.75 7.17969H41.0156V16.5352ZM34.1211 3.64453C35.8398 3.8138 38.2357 3.89844 41.3086 3.89844C42.4154 3.89844 43.7956 3.84635 45.4492 3.74219C47.1159 3.63802 48.2161 3.58594 48.75 3.58594C50.3906 3.58594 51.8685 3.82682 53.1836 4.30859C54.5117 4.77734 55.5794 5.40885 56.3867 6.20312C57.207 6.98438 57.832 7.86328 58.2617 8.83984C58.6914 9.81641 58.9062 10.832 58.9062 11.8867C58.9062 12.5508 58.8021 13.2214 58.5938 13.8984C58.3984 14.5625 58.0859 15.207 57.6562 15.832C57.2266 16.444 56.7122 16.9974 56.1133 17.4922C55.5273 17.974 54.8047 18.3776 53.9453 18.7031C53.099 19.0156 52.1875 19.1914 51.2109 19.2305C52.2005 19.556 53.0469 20.1289 53.75 20.9492C54.4531 21.7565 54.9805 22.6224 55.332 23.5469C55.6966 24.4583 56.0286 25.3568 56.3281 26.2422C56.6406 27.1146 57.0117 27.8438 57.4414 28.4297C57.8711 29.0026 58.3984 29.2891 59.0234 29.2891C60.8724 29.2891 61.7969 29.4583 61.7969 29.7969V30.5195C61.7969 30.9622 61.7643 31.3203 61.6992 31.5938C61.6341 31.8672 61.4844 32.1602 61.25 32.4727C61.0156 32.7721 60.6315 32.9935 60.0977 33.1367C59.5638 33.293 58.8737 33.3711 58.0273 33.3711C57.194 33.3711 56.4583 33.2344 55.8203 32.9609C55.1953 32.6745 54.6745 32.2969 54.2578 31.8281C53.8542 31.3464 53.4961 30.793 53.1836 30.168C52.8711 29.543 52.5846 28.8789 52.3242 28.1758C52.0768 27.4727 51.8229 26.763 51.5625 26.0469C51.3151 25.3307 51.0091 24.6341 50.6445 23.957C50.293 23.2669 49.8828 22.6484 49.4141 22.1016C48.9583 21.5417 48.3659 21.0599 47.6367 20.6562C46.9206 20.2526 46.0938 19.9792 45.1562 19.8359H41.0156V27.8242C41.0156 28.0195 41.0221 28.1758 41.0352 28.293C41.0612 28.3971 41.1068 28.5208 41.1719 28.6641C41.25 28.8073 41.3802 28.918 41.5625 28.9961C41.7448 29.0612 41.9792 29.0938 42.2656 29.0938C42.8646 29.0938 43.3789 29.1719 43.8086 29.3281C44.2383 29.4844 44.4531 29.7188 44.4531 30.0312C44.4531 31.763 44.2383 32.8242 43.8086 33.2148C41.8555 33.0716 40.1823 33 38.7891 33C37.5911 33 36.0352 33.0716 34.1211 33.2148C33.7695 33.0065 33.5091 32.5898 33.3398 31.9648C33.1706 31.3398 33.0859 30.6953 33.0859 30.0312C33.0859 29.7188 33.3008 29.4844 33.7305 29.3281C34.1602 29.1719 34.6745 29.0938 35.2734 29.0938C35.7812 29.0938 36.1133 28.9896 36.2695 28.7812C36.4258 28.5599 36.5039 28.2539 36.5039 27.8633V8.99609C36.5039 8.60547 36.4258 8.30599 36.2695 8.09766C36.1133 7.8763 35.7812 7.76562 35.2734 7.76562C33.8151 7.76562 33.0859 7.42708 33.0859 6.75C33.0859 6.11198 33.1706 5.48698 33.3398 4.875C33.5091 4.25 33.7695 3.83984 34.1211 3.64453ZM90.7617 23.7812L90.7812 31.9648C90.3125 32.4336 89.7852 32.668 89.1992 32.668C89.056 32.668 88.9062 32.6549 88.75 32.6289C88.6068 32.5898 88.4505 32.5378 88.2812 32.4727C88.112 32.3945 87.9753 32.3359 87.8711 32.2969C87.7669 32.2448 87.6107 32.1667 87.4023 32.0625C87.207 31.9453 87.0833 31.8737 87.0312 31.8477C85.8594 32.3294 84.4922 32.7266 82.9297 33.0391C81.3802 33.3646 79.9219 33.5273 78.5547 33.5273C76.6016 33.5273 74.8047 33.2474 73.1641 32.6875C71.5234 32.1276 70.1302 31.3724 68.9844 30.4219C67.8385 29.4714 66.862 28.3646 66.0547 27.1016C65.2604 25.8255 64.6745 24.4779 64.2969 23.0586C63.9193 21.6393 63.7305 20.1745 63.7305 18.6641C63.7305 16.6198 64.0625 14.6732 64.7266 12.8242C65.3906 10.9753 66.3086 9.36068 67.4805 7.98047C68.6523 6.60026 70.1042 5.50651 71.8359 4.69922C73.5677 3.87891 75.4362 3.46875 77.4414 3.46875C79.0299 3.46875 80.651 3.75521 82.3047 4.32812C83.9714 4.88802 85.2865 5.72135 86.25 6.82812C86.25 4.875 86.5039 3.89844 87.0117 3.89844H89.1992C89.8242 3.89844 90.1367 4.57552 90.1367 5.92969V10.7539C90.1367 11.4961 90.0977 12.043 90.0195 12.3945C89.9544 12.7331 89.8633 12.9479 89.7461 13.0391C89.6419 13.1172 89.4596 13.1693 89.1992 13.1953H87.5781C87.474 13.1953 87.2852 13.0456 87.0117 12.7461C86.7513 12.4466 86.4453 12.0755 86.0938 11.6328C85.7422 11.1771 85.2799 10.6888 84.707 10.168C84.1471 9.63411 83.5482 9.14583 82.9102 8.70312C82.2721 8.2474 81.4974 7.86979 80.5859 7.57031C79.6875 7.27083 78.75 7.12109 77.7734 7.12109C76.5625 7.12109 75.4427 7.34245 74.4141 7.78516C73.3854 8.21484 72.513 8.80078 71.7969 9.54297C71.0807 10.2721 70.4622 11.1315 69.9414 12.1211C69.4336 13.0977 69.056 14.1328 68.8086 15.2266C68.5742 16.3203 68.457 17.4401 68.457 18.5859C68.457 19.6797 68.5938 20.7474 68.8672 21.7891C69.1536 22.8177 69.5898 23.7943 70.1758 24.7188C70.7617 25.6432 71.4648 26.457 72.2852 27.1602C73.1185 27.8503 74.1146 28.4036 75.2734 28.8203C76.4453 29.224 77.7148 29.4258 79.082 29.4258C81.5951 29.4258 84.0495 29.1263 86.4453 28.5273V24.5039C86.4453 24.0612 86.4128 23.6901 86.3477 23.3906C86.2826 23.0781 86.1523 22.7656 85.957 22.4531C85.7747 22.1406 85.4688 21.9062 85.0391 21.75C84.6224 21.5938 84.0951 21.5156 83.457 21.5156C83.2096 21.5156 83.0404 21.4049 82.9492 21.1836C82.8711 20.9622 82.832 20.5651 82.832 19.9922C82.832 19.1198 83.0469 18.3385 83.4766 17.6484C85.1562 17.7917 86.8099 17.8633 88.4375 17.8633C89.1016 17.8633 89.7591 17.8503 90.4102 17.8242C91.0612 17.7852 91.5951 17.7461 92.0117 17.707C92.4284 17.668 92.6823 17.6484 92.7734 17.6484C92.8776 17.7526 92.9753 18 93.0664 18.3906C93.1706 18.7682 93.2227 19.1068 93.2227 19.4062C93.2227 19.9141 93.138 20.3177 92.9688 20.6172C92.7995 20.9036 92.5911 21.112 92.3438 21.2422C92.1094 21.3724 91.8685 21.5091 91.6211 21.6523C91.3867 21.7956 91.1849 22.043 91.0156 22.3945C90.8464 22.7331 90.7617 23.1953 90.7617 23.7812ZM108.711 4.11328C110.339 4.11328 111.445 4.0612 112.031 3.95703V4.03516C112.109 4.58203 112.344 5.51302 112.734 6.82812C113.138 8.14323 113.405 8.95052 113.535 9.25L120.762 28.0781C120.918 28.4688 121.113 28.7747 121.348 28.9961C121.582 29.2044 121.953 29.3086 122.461 29.3086C122.917 29.3086 123.333 29.3867 123.711 29.543C124.089 29.6992 124.323 29.9336 124.414 30.2461C124.362 31.0794 124.336 31.75 124.336 32.2578C124.336 32.7526 124.225 33.0716 124.004 33.2148C122.051 33.0716 120.41 33 119.082 33C116.426 33 114.609 33.0716 113.633 33.2148C113.411 32.4596 113.301 31.418 113.301 30.0898C113.301 29.7773 113.529 29.5755 113.984 29.4844C114.453 29.3932 114.915 29.3151 115.371 29.25C115.84 29.1849 116.074 29.0221 116.074 28.7617C116.074 28.5794 116.016 28.3385 115.898 28.0391L114.043 22.7852H103.789L102.012 28.0391C101.895 28.3906 101.836 28.6315 101.836 28.7617C101.836 29.0221 102.07 29.1849 102.539 29.25C103.008 29.3151 103.477 29.3932 103.945 29.4844C104.414 29.5755 104.648 29.7773 104.648 30.0898C104.492 31.7565 104.316 32.7982 104.121 33.2148C102.064 33.0716 100.352 33 98.9844 33C98.1901 33 96.6276 33.0716 94.2969 33.2148C94.0755 33.0716 93.9648 32.7526 93.9648 32.2578C93.9648 31.75 94.0039 31.0794 94.082 30.2461C94.1732 29.9336 94.401 29.6992 94.7656 29.543C95.1302 29.3867 95.5404 29.3086 95.9961 29.3086C96.5039 29.3086 96.875 29.2044 97.1094 28.9961C97.3438 28.7747 97.5391 28.4688 97.6953 28.0781L104.922 8.85938C105.026 8.57292 105.078 8.35807 105.078 8.21484C105.078 7.95443 104.941 7.78516 104.668 7.70703C104.395 7.61589 104.095 7.58333 103.77 7.60938C103.457 7.63542 103.164 7.59635 102.891 7.49219C102.617 7.375 102.48 7.17318 102.48 6.88672C102.48 6.86068 102.493 6.79557 102.52 6.69141C102.702 5.23307 102.93 4.32161 103.203 3.95703C104.805 4.0612 106.641 4.11328 108.711 4.11328ZM108.965 8.46875C107.598 11.8021 106.211 15.5846 104.805 19.8164H113.008C112.383 17.9284 111.732 16.0404 111.055 14.1523C110.378 12.2643 109.857 10.8451 109.492 9.89453L108.965 8.46875ZM126.562 3.64453C126.784 3.65755 127.142 3.6901 127.637 3.74219C128.145 3.79427 128.607 3.83333 129.023 3.85938C129.44 3.88542 129.909 3.89844 130.43 3.89844C130.846 3.89844 131.361 3.87891 131.973 3.83984C132.585 3.78776 132.956 3.76172 133.086 3.76172C133.125 3.76172 133.171 3.76823 133.223 3.78125C133.275 3.78125 133.307 3.78125 133.32 3.78125C133.542 3.79427 134.368 4.71875 135.801 6.55469C137.233 8.39062 138.965 10.7148 140.996 13.5273C143.04 16.3398 144.622 18.5339 145.742 20.1094C146.862 21.6849 147.871 23.1042 148.77 24.3672V9.05469C148.77 8.66406 148.691 8.36458 148.535 8.15625C148.379 7.9349 148.047 7.82422 147.539 7.82422C146.94 7.82422 146.426 7.74609 145.996 7.58984C145.566 7.43359 145.352 7.19922 145.352 6.88672C145.352 6.22266 145.417 5.59115 145.547 4.99219C145.69 4.38021 145.905 3.97005 146.191 3.76172C147.363 3.85286 148.919 3.89844 150.859 3.89844C152.812 3.89844 154.355 3.85286 155.488 3.76172C155.775 3.97005 155.983 4.38021 156.113 4.99219C156.257 5.59115 156.328 6.22266 156.328 6.88672C156.328 7.19922 156.113 7.43359 155.684 7.58984C155.254 7.74609 154.74 7.82422 154.141 7.82422C153.854 7.82422 153.62 7.86328 153.438 7.94141C153.255 8.00651 153.125 8.11068 153.047 8.25391C152.982 8.39714 152.936 8.52734 152.91 8.64453C152.897 8.7487 152.891 8.89844 152.891 9.09375V24.9141C152.891 25.8125 152.93 27.2513 153.008 29.2305C153.099 31.1966 153.145 32.362 153.145 32.7266C152.48 33.3906 151.777 33.7227 151.035 33.7227C150.879 33.7227 150.729 33.6966 150.586 33.6445C150.456 33.5924 150.332 33.5013 150.215 33.3711C150.098 33.2539 150 33.1497 149.922 33.0586C149.857 32.9805 149.759 32.8438 149.629 32.6484C149.499 32.4401 149.401 32.2904 149.336 32.1992C148.151 30.5326 145.143 26.3529 140.312 19.6602C135.482 12.9544 133.066 9.61458 133.066 9.64062V27.8242C133.066 28.0195 133.073 28.1758 133.086 28.293C133.112 28.3971 133.158 28.5208 133.223 28.6641C133.301 28.8073 133.431 28.918 133.613 28.9961C133.796 29.0612 134.03 29.0938 134.316 29.0938C134.915 29.0938 135.43 29.1719 135.859 29.3281C136.289 29.4844 136.504 29.7188 136.504 30.0312C136.504 30.6953 136.432 31.3398 136.289 31.9648C136.159 32.5898 135.951 33.0065 135.664 33.2148C133.893 33.0716 132.35 33 131.035 33C129.798 33 128.307 33.0716 126.562 33.2148C126.211 33.0065 125.951 32.5898 125.781 31.9648C125.612 31.3398 125.527 30.6953 125.527 30.0312C125.527 29.7188 125.742 29.4844 126.172 29.3281C126.602 29.1719 127.116 29.0938 127.715 29.0938C128.223 29.0938 128.555 28.9896 128.711 28.7812C128.867 28.5599 128.945 28.2539 128.945 27.8633V8.99609C128.945 8.60547 128.867 8.30599 128.711 8.09766C128.555 7.8763 128.223 7.76562 127.715 7.76562C126.257 7.76562 125.527 7.42708 125.527 6.75C125.527 6.11198 125.612 5.48698 125.781 4.875C125.951 4.25 126.211 3.83984 126.562 3.64453ZM159.863 3.64453C162.025 3.8138 163.581 3.89844 164.531 3.89844C165.547 3.89844 167.155 3.8138 169.355 3.64453C169.642 3.85286 169.85 4.27604 169.98 4.91406C170.124 5.53906 170.195 6.1901 170.195 6.86719C170.195 7.17969 169.98 7.41406 169.551 7.57031C169.121 7.72656 168.607 7.80469 168.008 7.80469C167.721 7.80469 167.487 7.84375 167.305 7.92188C167.122 7.98698 166.992 8.09115 166.914 8.23438C166.849 8.3776 166.803 8.50781 166.777 8.625C166.764 8.72917 166.758 8.87891 166.758 9.07422V27.8242C166.758 28.0195 166.764 28.1758 166.777 28.293C166.803 28.3971 166.849 28.5208 166.914 28.6641C166.992 28.8073 167.122 28.918 167.305 28.9961C167.487 29.0612 167.721 29.0938 168.008 29.0938C168.607 29.0938 169.121 29.1719 169.551 29.3281C169.98 29.4844 170.195 29.7188 170.195 30.0312C170.195 30.7083 170.124 31.3594 169.98 31.9844C169.85 32.5964 169.642 33.0065 169.355 33.2148C167.493 33.0716 165.885 33 164.531 33C163.255 33 161.699 33.0716 159.863 33.2148C159.512 33.0065 159.251 32.5898 159.082 31.9648C158.913 31.3398 158.828 30.6953 158.828 30.0312C158.828 29.7188 159.043 29.4844 159.473 29.3281C159.902 29.1719 160.417 29.0938 161.016 29.0938C161.523 29.0938 161.855 28.9896 162.012 28.7812C162.168 28.5599 162.246 28.2539 162.246 27.8633V8.99609C162.246 8.60547 162.168 8.30599 162.012 8.09766C161.855 7.8763 161.523 7.76562 161.016 7.76562C159.557 7.76562 158.828 7.42708 158.828 6.75C158.828 6.11198 158.913 5.48698 159.082 4.875C159.251 4.25 159.512 3.83984 159.863 3.64453ZM195.645 13.5859H194.023C193.906 13.5859 193.757 13.4688 193.574 13.2344C193.392 12.987 193.177 12.6745 192.93 12.2969C192.695 11.9193 192.422 11.5026 192.109 11.0469C191.797 10.5781 191.426 10.1159 190.996 9.66016C190.579 9.20443 190.13 8.78776 189.648 8.41016C189.18 8.03255 188.62 7.72656 187.969 7.49219C187.331 7.24479 186.667 7.12109 185.977 7.12109C184.766 7.12109 183.646 7.34245 182.617 7.78516C181.589 8.21484 180.716 8.80078 180 9.54297C179.284 10.2721 178.665 11.1315 178.145 12.1211C177.637 13.0977 177.259 14.1328 177.012 15.2266C176.777 16.3203 176.66 17.4401 176.66 18.5859C176.66 19.6797 176.803 20.7474 177.09 21.7891C177.389 22.8177 177.839 23.7943 178.438 24.7188C179.049 25.6432 179.779 26.457 180.625 27.1602C181.484 27.8503 182.52 28.4036 183.73 28.8203C184.941 29.224 186.257 29.4258 187.676 29.4258C190.71 29.4258 193.509 28.4688 196.074 26.5547C196.582 27.2318 196.836 27.8958 196.836 28.5469C196.836 29.4844 196.328 30.3503 195.312 31.1445C194.31 31.9258 193.073 32.5182 191.602 32.9219C190.13 33.3255 188.646 33.5273 187.148 33.5273C185.143 33.5273 183.294 33.2474 181.602 32.6875C179.922 32.1276 178.496 31.3724 177.324 30.4219C176.152 29.4714 175.15 28.3646 174.316 27.1016C173.496 25.8255 172.891 24.4779 172.5 23.0586C172.122 21.6393 171.934 20.1745 171.934 18.6641C171.934 16.6198 172.266 14.6732 172.93 12.8242C173.594 10.9753 174.512 9.36068 175.684 7.98047C176.855 6.60026 178.307 5.50651 180.039 4.69922C181.771 3.87891 183.639 3.46875 185.645 3.46875C186.921 3.46875 188.21 3.75521 189.512 4.32812C190.827 4.88802 191.888 5.72135 192.695 6.82812C192.695 4.875 192.949 3.89844 193.457 3.89844H195.645C196.27 3.89844 196.582 4.57552 196.582 5.92969V11.1445C196.582 11.8867 196.543 12.4336 196.465 12.7852C196.4 13.1237 196.309 13.3385 196.191 13.4297C196.087 13.5078 195.905 13.5599 195.645 13.5859ZM202.324 33.2148H200.43C199.583 29.5299 199.16 26.75 199.16 24.875C199.16 24.5755 199.453 24.3281 200.039 24.1328C200.625 23.9375 201.237 23.8398 201.875 23.8398C202.135 23.8398 202.344 23.8594 202.5 23.8984C202.917 24.9531 203.496 25.8906 204.238 26.7109C204.98 27.5312 205.788 28.1758 206.66 28.6445C207.546 29.1133 208.424 29.4714 209.297 29.7188C210.182 29.9531 211.035 30.0703 211.855 30.0703C213.353 30.0703 214.57 29.7383 215.508 29.0742C216.458 28.3971 216.934 27.4076 216.934 26.1055C216.934 25.2331 216.719 24.4714 216.289 23.8203C215.872 23.1562 215.306 22.6224 214.59 22.2188C213.887 21.8021 213.073 21.4375 212.148 21.125C211.237 20.8125 210.267 20.5195 209.238 20.2461C208.223 19.9727 207.201 19.6862 206.172 19.3867C205.156 19.0872 204.186 18.7096 203.262 18.2539C202.35 17.7982 201.536 17.2708 200.82 16.6719C200.117 16.0599 199.551 15.2721 199.121 14.3086C198.704 13.3451 198.496 12.2383 198.496 10.9883C198.496 9.38672 198.991 8.00651 199.98 6.84766C200.97 5.67578 202.214 4.82292 203.711 4.28906C205.221 3.74219 206.862 3.46875 208.633 3.46875C211.393 3.46875 213.737 4.15885 215.664 5.53906C215.794 5.27865 215.892 5.02474 215.957 4.77734C216.035 4.52995 216.074 4.36068 216.074 4.26953C216.074 4.17839 216.126 4.09375 216.23 4.01562C216.348 3.9375 216.491 3.89844 216.66 3.89844C216.829 3.88542 217.135 3.87891 217.578 3.87891C217.969 3.87891 218.587 3.91146 219.434 3.97656C220.254 7.60938 220.664 10.194 220.664 11.7305C220.664 11.9388 220.319 12.1081 219.629 12.2383C218.952 12.3685 218.288 12.4336 217.637 12.4336H217.148C216.667 10.7279 215.71 9.32812 214.277 8.23438C212.845 7.1276 211.042 6.57422 208.867 6.57422C207.031 6.57422 205.651 6.9388 204.727 7.66797C203.802 8.39714 203.34 9.39323 203.34 10.6562C203.34 11.3984 203.548 12.056 203.965 12.6289C204.395 13.2018 204.967 13.6771 205.684 14.0547C206.4 14.4193 207.22 14.7513 208.145 15.0508C209.069 15.3503 210.046 15.6432 211.074 15.9297C212.103 16.2161 213.132 16.5221 214.16 16.8477C215.189 17.1732 216.165 17.5768 217.09 18.0586C218.014 18.5404 218.835 19.0938 219.551 19.7188C220.267 20.3438 220.833 21.1445 221.25 22.1211C221.68 23.0846 221.895 24.1784 221.895 25.4023C221.895 26.7956 221.621 28.0326 221.074 29.1133C220.527 30.181 219.779 31.0273 218.828 31.6523C217.891 32.2773 216.836 32.7461 215.664 33.0586C214.505 33.3711 213.255 33.5273 211.914 33.5273C210.482 33.5273 209.056 33.2865 207.637 32.8047C206.23 32.3229 204.954 31.6523 203.809 30.793L203.477 32.7266C203.451 32.8438 203.411 32.9349 203.359 33C203.32 33.0521 203.216 33.0977 203.047 33.1367C202.878 33.1888 202.637 33.2148 202.324 33.2148Z" fill="#3C422E"></path></svg>